<svg id="Layer_1" data-name="Layer 1" xmlns="http://www.w3.org/2000/svg" viewBox="0 0 457.35 454.36"><defs><style>.cls-1{fill:#00c5bf;}</style></defs><path class="cls-1" d="M72.08,431.87V298.41a1,1,0,0,0,.73-1.13c-.16-9.16,4.81-15.34,11.92-20.15,15.47-10.47,31.08-20.73,46.67-31,40-26.47,79.73-53.44,119.83-79.81,14.81-9.73,28.65-21.07,45-28.33h8.24c2.84,1.54,6.06,2,8.85,3.87q98.47,65.73,197,131.33c5.57,3.72,11.57,7,15.43,12.92,2.2,3.38,2.38,7.24,3.61,10.83V432.62c-.78.24-.71.89-.75,1.5a21.25,21.25,0,0,1-9.39,16.63c-12.61,9.06-25.75,17.3-38.66,25.89-47,31.25-93.72,62.84-140.74,94-11.69,7.75-22.48,17.13-36.14,21.67H297c-3.29-1.46-6.85-2.24-9.89-4.27q-101.53-67.6-203-135.25a25.57,25.57,0,0,1-10.68-13.95C72.69,436.5,73.87,433.9,72.08,431.87ZM280.22,535.14a8.08,8.08,0,0,0,.27-1.3q0-42.36,0-84.73a6.83,6.83,0,0,0-3.09-5.61c-2-1.56-4.24-2.87-6.36-4.3q-21.91-14.73-43.83-29.46c-9.14-6.12-18.31-12.19-27.45-18.32-3-2-5.69-1.16-8.27.85-.67.52-1.39,1-2.09,1.47L129.1,434.39Zm40.93-340c-.07.85-.15,1.31-.15,1.78q0,42-.05,83.92c0,3.21,1.73,5.25,3.95,6.74q38.16,25.63,76.49,51a5.44,5.44,0,0,0,6.82-.15c4.52-3.32,9.35-6.22,14-9.31q23.56-15.51,47.12-31c2.26-1.48,3-2.29,0-4-4.72-2.78-9.1-6.15-13.66-9.2q-52.38-35.06-104.79-70.08C341.12,208.24,331.25,201.78,321.15,195.12Zm.38,339.61L472,434.43c-5.88-4-11.46-7.85-17.1-11.63-15.22-10.21-30.49-20.36-45.69-30.61-3.16-2.13-6.05-2.17-9.18,0-5.21,3.61-10.52,7.11-15.79,10.65L326.33,441.6c-3.47,2.32-5.47,5.12-5.43,9.74.2,26.37.09,52.73.12,79.09C321,531.74,320.66,533.12,321.53,534.73Zm-41-339.42L129.23,295.78a3,3,0,0,0,.53.66q30.33,20.24,60.65,40.45c5.05,3.38,7.07,3.46,12.23,0q36.09-24.12,72.12-48.35c3.07-2.07,5.73-4.86,5.74-9C280.52,251.8,280.51,224.07,280.51,195.31Zm88.1,169.82c-21.28-14.17-42.13-28-62.92-42-3.27-2.2-6-2.69-9.63-.38-20.74,13.15-40.83,27.24-61.28,40.82-1.86,1.23-1.83,1.84,0,3.07q30,20,60,40.09c3.43,2.29,7.13,2.77,10.68.42C326.43,393.29,347.32,379.33,368.61,365.13ZM487.33,334a5.68,5.68,0,0,0-1.61.44c-14.37,9.69-28.7,19.46-43.12,29.09-2.13,1.42-2,1.89.08,3.18,5.66,3.61,11.15,7.5,16.74,11.23,9.19,6.13,18.41,12.24,27.91,18.55Zm-374.61-.23v62.68c15.2-10.09,30.1-20,45-29.87,1.65-1.09,1.6-1.89-.05-3-5-3.26-10-6.62-14.94-9.93Z" transform="translate(-72.08 -137.96)"/></svg>