<?xml version="1.0" encoding="utf-8"?>
<!-- Generator: Adobe Illustrator 25.2.0, SVG Export Plug-In . SVG Version: 6.00 Build 0)  -->
<svg version="1.1" id="Layer_1" xmlns="http://www.w3.org/2000/svg" xmlns:xlink="http://www.w3.org/1999/xlink" x="0px" y="0px"
	 viewBox="0 0 157.9 120" style="enable-background:new 0 0 157.9 120;" xml:space="preserve">
<style type="text/css">
	.st0{fill:#0D8178;}
	.st1{fill:#1D2A2B;}
	.st2{fill:#05090E;}
	.st3{fill:#1C2B2C;}
	.st4{fill:#1B3030;}
	.st5{fill:#FEFEFE;}
</style>
<g id="Layer_2_1_">
	<g id="Layer_1-2">
		<path class="st0" d="M86.5,120H76.4c-0.1-0.1-0.2-0.2-0.2-0.2c-2-0.1-3.9-0.3-5.8-0.7c-10.2-1.9-19.8-6.5-27.7-13.3
			c-3.3-2.8-6.2-5.9-8.9-9.3c-1.9-2.5-3.7-5.2-5.1-8c-1.6-2.8-2.8-5.7-3.7-8.8c0.1-0.5,0.5-0.5,0.8-0.5c1.3-0.1,1.3-0.8,1-1.8
			c-1-4.3-1.9-8.6-2.8-13c-0.2-0.9-0.3-1.8-1.6-1.3c-0.3,0.1-0.6,0-0.8-0.2c-0.3-5.3,0.1-10.5,1.2-15.7c1.4-6.3,3.8-12.3,7.1-17.9
			c3.9-6.5,8.9-12.3,14.9-16.9c5.2-4,11-7.1,17.2-9.2c3.5-1.2,7-2,10.6-2.5c1.3,0,2.5-0.3,3.7-0.7h10.1c1,0.7,2.3,0.5,3.5,0.7
			c3.1,0.4,6.1,1.1,9,2c2.8,0.9,5.6,1.9,8.2,3.2c3.3,1.6,6.5,3.4,9.4,5.5c2.8,2,5.4,4.2,7.8,6.7c2.9,3.1,5.6,6.5,7.9,10.1
			c3.2,5.1,5.6,10.6,7.1,16.3c1.1,4,1.8,8.2,2,12.4c-0.6,0.5,0.1,1,0,1.5c0,0.7,0,1.5,0,2.2c-0.9-0.8-1.7-1.7-2.4-2.6
			c-0.2-0.2-0.4-0.3-0.6-0.2s-0.3,0.4-0.2,0.6c0.4,1.7,0.7,3.4,1.1,5.1c0,0.2,0.2,0.5,0.5,0.4s0.2-0.4,0.1-0.6
			c-0.2-1.2-0.5-2.5-0.8-3.9c0.9,0.7,1.8,1.6,2.4,2.6c0,2.5-0.3,5-0.7,7.4c-0.6,3.8-1.5,7.5-2.8,11.1c-1.8,5.1-4.3,9.9-7.5,14.3
			c-3.5,4.9-7.7,9.2-12.4,12.9c-4.3,3.3-9,6-14,8c-4.8,1.9-9.8,3.2-14.9,3.9C88.3,119.7,87.3,119.5,86.5,120z M38.3,83.1
			c-1-1-1.9-2-2.9-3c-0.2-0.2-0.4-0.4-0.7-0.3s-0.2,0.4-0.2,0.6c0.3,1.7,0.7,3.3,1.1,5c0.1,0.3,0.2,0.6,0.6,0.4s0.2-0.4,0.1-0.6
			c-0.3-1.3-0.5-2.6-0.9-4.2c1.2,1.4,2.3,2.6,3.3,3.7c0.2,0.2,0.4,0.6,0.8,0.4s0.1-0.5,0-0.8c-0.3-1.6-0.7-3.2-1-4.8
			c-0.1-0.3-0.1-0.7-0.6-0.5s-0.2,0.4-0.2,0.7C38.1,80.8,38.3,81.9,38.3,83.1L38.3,83.1z M90.8,50.8c-0.7-0.2-0.4-0.8-0.6-1.3
			s0-0.8-0.5-0.8s-0.4,0.5-0.3,0.9c0.4,2.1,0.9,4.1,1.3,6.2c0.6,2.7,1.1,5.3,1.7,8c0.1,0.3,0.1,0.9,0.6,0.8s0.2-0.7,0.2-1
			c0-0.1,0-0.2-0.1-0.3c-0.7-3.3-1.4-6.7-2.1-10c-0.1-0.3-0.2-0.7,0.1-1l0.7,0.8c0.5,3.7,1.5,7.2,2.2,10.9c0.1,0.4,0.3,0.6,0.7,0.5
			c1.8-0.2,1.9-0.3,1.5-2c0-0.2-0.1-0.5-0.1-0.7c-0.7-2.8-1-5.7-1.9-8.5c0.3-0.4,0.7-0.2,1,0c0.7,3.2,1.3,6.5,2,9.7
			c0.1,0.3,0,0.9,0.5,0.8s0.3-0.6,0.3-1c0-0.2-0.1-0.4-0.1-0.6c-0.6-2.8-1.2-5.6-1.8-8.4l0.7-0.1c0.2,0.6,0.3,1.2,0.5,1.8
			c0.5,2.3,1,4.7,1.5,7c0.2,1,0.9,0.8,1.6,0.7s1.2-0.2,0.9-1.2c-1-4.6-2-9.3-3-13.9c-0.1-0.5-0.1-1-0.7-1.2c0-1.9,0-3.7,0.9-5.5
			c0.8-1.6,0.4-2.6-1.2-3.4c-1.1-0.4-2.3-0.7-3.4-0.9c-1.5-0.4-2.3,0-2,1.5c0.1,0.8-0.1,1.7-0.3,2.5C91.3,44.4,90.8,47.6,90.8,50.8z
			 M87.9,74.1c-0.4,0.2-0.8,0.6-0.9,1c-0.8,2.7-1.4,5.5-1.7,8.4c-0.3,2.4,1.2,4.6,3.5,5.3c2.2,0.7,4.5,0.4,6.5-0.7
			c0.3,1.6,1.8,2.6,3.3,2.4c0.8-0.2,1.6-0.4,2.4-0.5s1-0.6,1-1.3c-0.1-1.5,0.1-3.1,0.4-4.5c0.7-2.5,1.1-5,1.9-7.5
			c0.3-0.8,0.1-1.6-0.5-2.2c-1.6-1.9-3.8-1.2-5.8-1.2c-0.3,0-0.4,0.2-0.4,0.5c-0.2,1.9-0.9,3.6-1.2,5.5l0,0c-0.7,1-0.6,2.2,0.5,2.4
			c-0.5,0.3-1.1,0.3-1.3,0.8c-0.6,1.6-2,2.1-3.4,2.5s-1.9-0.2-1.6-1.5c0.5-1.7,0.5-3.5,1-5.1c0.2-0.6,0-1.2-0.3-1.7
			c-0.5-0.7-1.1-1.3-1.7-1.8c0.4-0.2,0.8-0.4,1.2-0.7c0.2-0.2,0.7-0.5,0.3-0.9s-0.5,0.2-0.7,0.4c-0.6,0.6-1.5,0.6-2.1,0
			c-0.1-0.1-0.2-0.2-0.2-0.3c-0.6-0.8-0.9-1.7-0.8-2.7c0.1-1.6,1-2.1,2.4-1.3c0.3,0.1,0.5,0.2,0.6,0s0-0.4-0.2-0.6
			c-1-0.7-2.5-0.4-3.2,0.6c-0.1,0.1-0.2,0.3-0.2,0.4C86.3,71.2,86.7,72.9,87.9,74.1z M65,54.2c0.1,0.7,0.2,1.5,0.4,2.2
			c0.5,2.5,1.2,5,1.5,7.6h-0.6c-0.7-3-1.4-5.9-1.9-8.9c-0.2-1.2-0.9-0.7-1.5-0.6s-1.3,0-1,1.1c0.7,3.1,1.4,6.2,2,9.2
			c0.1,0.7-0.1,1.4-0.5,1.9c-0.6-3.8-1.6-7.4-2.3-11.2c0-0.2-0.1-0.6-0.5-0.6c-0.5,0.1-0.4,0.5-0.3,0.9c0.9,4.1,1.8,8.2,2.7,12.3
			c-0.6,2.7-1.7,5.3-2,8.1c-0.2,1.3-1,2.7-0.2,4.1c0.1,0.2,0,0.5-0.3,0.5s-0.8,0.3-0.7,0.6c0.3,1.2-0.6,2.1-1,3.1
			c0,0.2-0.1,0.3-0.1,0.5c0,0.9,0,1.7-0.1,2.6c-0.1,2.8,1,3.9,3.8,3.6c0.4,0,0.7-0.1,1-0.2c1.9-0.5,2.1-0.7,2-2.7c0-0.2,0-0.5,0-0.7
			c-0.1-2.5,0.7-4.9,0.8-7.3c0-0.4-0.3-1.1,0.4-1s1.7-0.6,2.2,0.5c0.9,1.9,1.6,3.8,2.4,5.7c1,2,1.8,4.1,2.3,6.2
			c0.1,0.4,0.3,0.7,0.5,1c0.4,0.6,0.9,1,1.1-0.3c0.6,1.2,1.1,2.8,0.9,3.1c-0.6,0.8-0.2,1.2,0.6,1.5c-0.3,0.7-0.4,1.3,0.3,1.9
			s3.6,0.9,4.2,0.5c0.1-0.1,0.2-0.2,0.2-0.3c0.1-0.4,0.4-0.4,0.7-0.3c0.8,0.4,0.9-0.3,1-0.7c0.2-0.7,0.1-1.4-0.3-2
			c-0.8-1.4-1.3-2.9-1.7-4.5c-0.2-0.7-0.3-1.5-0.6-2.2c-0.8-1.9-2.1-3.5-2.6-5.6c-0.5-1.8-1.2-3.5-2.2-5.1c0.7-0.3,1.4-0.6,2.1-0.8
			s1-0.8,1.5-1.4c1.2-1.8,0.8-3.9,1.5-5.7c0.5-1.5,0.3-3.2-0.6-4.6c-0.3-2.1-0.7-4.2-1.2-6.3c-0.5-2.6-1.1-5.1-1.6-7.7
			c-0.1-0.3-0.2-0.7-0.6-0.6s-0.4,0.5-0.3,0.8c0.2,0.8,0.4,1.5,0.5,2.3c0.8,3.7,1.6,7.4,2.3,11.1c-0.3-0.1-0.7-0.1-0.9-0.4
			c-0.7-4.2-1.8-8.4-2.6-12.6c-0.2-0.9-0.6-1-1.4-0.8s-1.4,0.3-1.1,1.4c0.5,1.9,0.9,3.9,1.2,5.8c0.5,1.9,0.8,3.8,1,5.7h-0.6
			l-2.4-11.7c-0.1-0.4-0.1-0.8-0.6-0.7s-0.3,0.5-0.2,0.8c0.2,0.8,0.3,1.5,0.5,2.3c0.6,3.1,1.4,6.1,1.9,9.2l-0.7,0.2
			c-0.7-3.5-1.5-7-2.2-10.6c-0.4-1.8-0.3-1.8-2.1-1.4c0.4-1.5,0.6-3,0.7-4.5c0.2-2.5,0.5-5.1,1-7.6c2.5,3.4,4.7,7,7.5,10.1
			c0,0.3,0,0.6,0.1,0.9c1,4.6,2,9.2,2.9,13.9c0.3,1.4,1,0.8,1.7,0.8s1-0.5,0.8-1.3c-1-4.5-1.9-9-2.9-13.5c0.3,0,0.6,0,0.9,0.2
			c0.9,4.5,1.9,9,2.8,13.5c0.1,0.2,0.1,0.6,0.4,0.6c0.6,0,1.2-0.1,1.8-0.4c0.5-0.3,0.2-0.9,0.1-1.3c-0.9-4.4-1.9-8.9-2.8-13.3
			c0.1-0.3,0.3-0.4,0.5-0.5c0.1,0.2,0.2,0.4,0.2,0.7c0.9,4.5,1.9,9,2.9,13.4c0.1,0.4,0,0.9,0.6,0.8s0.3-0.6,0.2-0.9
			c-1-4.7-2-9.4-3-14.1c-0.1-0.6-0.3-0.8-0.9-0.8C84.1,49,84,48.1,84,47.1c0-1.5,0.3-3,0.6-4.5c0.2-0.9,0.5-2.1-0.2-2.7
			s-0.5-1.1-0.1-1.8s1.9-1.2,0.9-2.5c-0.1-0.1,0.1-0.4,0.3-0.5c0.4-0.2,0.6-0.6,0.4-1c0,0,0,0,0,0c-0.3-0.7,0.1-1.1,0.5-1.5
			c1-1.1,1.7-2.5,2-4c0.1-1.7-3.4-3.8-5-3.2c-2,0.8-2.3,2.6-2.6,4.3c-0.5,2.4-0.5,4.8-1.8,7c-0.8,1.5-0.4,3.4-0.8,5.1
			c-0.1,0.3,0.3,1-0.1,1.1s-0.7-0.5-1-0.9c-0.1-0.1-0.1-0.3-0.2-0.4c-1.7-3.2-3.4-6.3-5.1-9.5c-0.4-0.7-0.9-1.3-1.5-1.8
			c-1.2-1.1-2.7-0.6-4.1-0.7s-1.6,0-1.2,1.5c0,0.2,0,0.5-0.1,0.7c-0.5,2.7-0.7,5.5-1,8.2c-0.5,3.4-0.6,6.7-0.4,10.1
			C63.6,51.8,63.7,53.2,65,54.2z M37.4,60c-0.4,0.2-1.8-0.3-1.4,1.2c1,4.7,2,9.3,3,14c0.2,0.9,0.7,0.9,1.4,0.8s1.4-0.2,1.1-1.2
			c-1-4.8-2.1-9.6-3.1-14.3C38.3,59.9,38.1,59.7,37.4,60z M124.8,42.1c0.1,0.3,0.1,0.5,0.2,0.8c0.9,4.3,1.8,8.6,2.7,12.8
			c0.4,1.7,0.4,1.7,2.1,1.2c0.5-0.1,0.6-0.3,0.5-0.8c-1-4.8-2.1-9.6-3.1-14.5c-0.1-0.6-0.3-0.9-0.9-0.6S124.8,40.9,124.8,42.1z
			 M44,58.6c-1.5,0-1.8,0.3-1.6,1.4c1,4.6,2,9.2,2.9,13.9c0.2,0.9,0.6,1,1.4,0.8s1.4-0.3,1.1-1.4s-0.4-1.9-0.6-2.9
			c-0.7-3.5-1.5-7-2.2-10.5C44.9,59.3,45.1,58.4,44,58.6z M51.1,73.7c1.7,0,1.9-0.3,1.5-1.9c-0.9-4.3-1.9-8.7-2.8-13.1
			c-0.2-1.1-0.6-1.4-1.7-1.1c-0.8,0.2-1.1,0.6-0.8,1.5c0.2,0.6,0.2,1.2,0.4,1.7c0.8,3.9,1.7,7.9,2.5,11.8
			C50.3,73.1,50.2,73.8,51.1,73.7L51.1,73.7z M57.7,71.8c0-0.1,0-0.2-0.1-0.2c-1-4.8-2-9.7-3.1-14.5c-0.3-1.2-1.1-0.4-1.8-0.4
			s-0.9,0.4-0.7,1.1c0.2,1,0.4,2,0.7,3c0.8,3.7,1.6,7.4,2.4,11.1c0.1,0.5,0.2,1,0.9,0.8S57.5,72.7,57.7,71.8L57.7,71.8z M35,76.5
			c0-0.1,0-0.2,0-0.3c-1-4.8-2.1-9.6-3.1-14.4c-0.2-1.2-1-0.3-1.5-0.3s-1.1,0-0.9,0.9c0.3,1.2,0.5,2.4,0.8,3.6
			c0.7,3.5,1.5,7,2.2,10.5c0.1,0.5,0.2,1.3,1,0.9C34,77.2,35,77.6,35,76.5z M115.2,43.5c-1.4,0-1.8,0.4-1.5,1.6
			c1,4.6,2,9.2,2.9,13.8c0.2,1.2,0.9,0.7,1.6,0.7c0.8-0.1,1.1-0.5,0.9-1.3s-0.4-1.9-0.6-2.9c-0.7-3.5-1.5-7-2.2-10.5
			C116,44.2,116.2,43.3,115.2,43.5L115.2,43.5z M134.5,39.4c-1.3,0-1.7,0.3-1.5,1.3c1,4.7,2,9.4,3,14.2c0.2,1,0.7,0.8,1.3,0.6
			s1.5,0,1.2-1.2c-0.3-1.2-0.4-2-0.7-3c-0.7-3.5-1.4-7-2.2-10.5C135.4,40.2,135.6,39.2,134.5,39.4L134.5,39.4z M123.9,57.5
			c0-0.1,0-0.2,0-0.2c-1-4.8-2.1-9.5-3-14.3c-0.2-1.2-1-0.4-1.5-0.4c-0.7,0-1.1,0.3-0.9,1.2c1,4.7,2,9.4,3,14.2
			c0.2,0.7,0.5,0.9,1.1,0.7S124,58.6,123.9,57.5z M108.7,44.9c-1.3,0-1.7,0.3-1.5,1.3c1,4.7,2,9.4,3,14.2c0.2,1,0.7,0.8,1.3,0.6
			s1.5,0,1.2-1.2s-0.5-2.1-0.7-3.2c-0.7-3.5-1.4-7-2.2-10.4C109.6,45.7,109.8,44.8,108.7,44.9z M91.6,32.8c0.1,1.6,1.4,2.8,2.9,2.7
			c0.1,0,0.3,0,0.4,0c1.1-0.2,2.2-0.7,3.2-1.3c0.7-0.5,1.5-0.9,1.3-1.9c-0.1-1.1-0.8-2-1.9-2.4c-0.4-0.1-0.7-0.2-1-0.4
			c-1-0.8-2.3-0.2-3.3-0.7c-0.1,0-0.3,0.1-0.3,0.3C92.1,30.1,91.7,31.4,91.6,32.8z M132,55.8c-0.1-0.3-0.1-0.7-0.2-1.1
			c-0.9-4.5-1.9-8.9-2.8-13.2c-0.1-0.4,0-0.9-0.6-0.8s-0.3,0.6-0.2,1c0.2,0.9,0.4,1.7,0.6,2.6c0.8,3.9,1.6,7.7,2.4,11.6
			c0.1,0.3,0.1,0.8,0.5,0.8S132,56.1,132,55.8L132,55.8z M120.7,58.4c-1.1-5-2.1-9.9-3.1-14.8c-0.1-0.3-0.2-0.7-0.6-0.6
			s-0.3,0.5-0.3,0.8c1,4.8,2,9.7,3.1,14.5c0.1,0.3,0.1,0.7,0.6,0.6S120.8,58.5,120.7,58.4L120.7,58.4z M106.2,61.5
			c0-0.1,0-0.2,0-0.3c-1-4.8-2-9.5-3-14.3c-0.1-0.3-0.1-0.8-0.6-0.7s-0.3,0.5-0.3,0.9l1.6,7.7c0.5,2.2,0.9,4.4,1.4,6.5
			c0.1,0.3,0.1,0.8,0.6,0.8S106.2,61.7,106.2,61.5L106.2,61.5z M140.2,54.2c-0.2-1-0.5-2.1-0.7-3.2c-0.8-3.6-1.5-7.3-2.3-10.9
			c-0.1-0.4,0-1.3-0.7-1.2s-0.3,0.8-0.2,1.3c0.2,0.9,0.4,1.7,0.5,2.6c0.8,3.8,1.6,7.6,2.4,11.3c0.1,0.3,0.1,0.7,0.5,0.6
			S140.2,54.5,140.2,54.2L140.2,54.2z M60.8,70.8c-0.3-1.3-0.6-2.8-0.9-4.3c-0.7-3.2-1.3-6.5-2-9.7c-0.1-0.4,0-1.2-0.7-1
			S57,56.6,57,57c0.1,0.8,0.3,1.6,0.5,2.5c0.8,3.8,1.6,7.6,2.4,11.4c0.1,0.3,0,0.8,0.6,0.8C60.8,71.6,60.9,71.3,60.8,70.8z
			 M28.1,61.9c-0.5,0.3-0.3,0.8-0.2,1.2c1,4.7,2,9.3,3,13.9c0.1,0.3-0.1,0.8,0.5,0.8s0.5-0.5,0.4-0.9c-0.4-1.6-0.7-3.2-1-4.8l-2-9.2
			C28.7,62.5,28.7,62.1,28.1,61.9z M135.3,55.4c-0.1-0.3-0.1-0.5-0.2-0.7c-0.8-3.7-1.5-7.3-2.3-11c-0.2-1.1-0.5-2.2-0.7-3.3
			c0-0.2-0.1-0.6-0.5-0.6s-0.4,0.4-0.4,0.8c0,0.2,0.1,0.4,0.1,0.6l1.9,8.9c0.4,1.7,0.8,3.4,1.1,5.1c0.1,0.3,0.1,0.7,0.6,0.6
			C135.2,55.9,135.3,55.7,135.3,55.4C135.3,55.5,135.3,55.5,135.3,55.4z M30.2,77.6c0-0.1-0.1-0.3-0.1-0.4l-3-14
			c-0.1-0.3,0-0.9-0.6-0.8s-0.3,0.6-0.2,1c0.5,2.6,1.1,5.2,1.7,7.8c0.4,2.1,0.9,4.2,1.3,6.3c0.1,0.4,0.1,0.8,0.6,0.7
			C30.2,78.1,30.2,77.8,30.2,77.6z M112.3,44.1c-0.4,0.1-0.4,0.5-0.4,0.8c0.1,0.7,0.3,1.4,0.4,2.1c0.8,4,1.7,8,2.5,11.9
			c0.1,0.4,0,1.2,0.7,1.1s0.2-0.8,0.2-1.2c-0.5-2.4-1-4.8-1.5-7.1s-1-4.5-1.4-6.8C112.7,44.6,112.8,44.1,112.3,44.1z M105.8,45.4
			c-0.6,0.3-0.4,0.8-0.3,1.2c0.7,3.1,1.3,6.2,2,9.4l1,4.8c0.1,0.4,0.2,0.8,0.7,0.6s0.2-0.5,0.2-0.8c-0.1-0.5-0.2-1-0.3-1.5
			c-0.9-4.2-1.8-8.5-2.7-12.7C106.3,46,106.3,45.6,105.8,45.4z M54.4,72.2c0-0.1,0-0.2-0.1-0.4c-0.7-3.1-1.3-6.2-2-9.2
			c-0.3-1.6-0.7-3.3-1-4.9c-0.1-0.4-0.2-0.6-0.6-0.5s-0.3,0.4-0.2,0.7c0.1,0.6,0.3,1.2,0.4,1.8c0.9,4.3,1.8,8.5,2.7,12.8
			c0.1,0.3,0.1,0.7,0.5,0.7S54.4,72.6,54.4,72.2z M59.3,71.4c0-0.2-0.1-0.5-0.1-0.8c-0.8-3.5-1.5-7-2.3-10.5l-0.8-3.5
			c-0.1-0.3,0-0.6-0.5-0.5s-0.5,0.3-0.3,0.7c0,0.2,0,0.4,0.1,0.6L58.1,70c0.1,0.6,0.3,1.1,0.4,1.6c0,0.2,0.2,0.4,0.5,0.4
			c0,0,0,0,0.1,0C59.3,71.9,59.3,71.7,59.3,71.4z M41.3,59.2c-0.5,0-0.5,0.4-0.5,0.7c0.1,0.8,0.3,1.6,0.5,2.3
			c0.9,4.1,1.7,8.1,2.6,12.2c0.1,0.3,0.1,0.8,0.6,0.7s0.3-0.5,0.2-0.8c-0.3-1.2-0.5-2.5-0.8-3.7c-0.7-3.4-1.5-6.9-2.2-10.3
			C41.6,59.8,41.6,59.4,41.3,59.2L41.3,59.2z M39.5,59.6c-0.6,0.2-0.3,0.7-0.2,1.1c1,4.7,2,9.3,3,14c0.1,0.4,0,0.9,0.6,0.8
			s0.3-0.6,0.3-0.9c-1-4.8-2-9.5-3-14.3C40,59.9,39.9,59.6,39.5,59.6L39.5,59.6z M28.5,77.8c-0.5-2.5-1-4.9-1.5-7.4
			c-0.5-2.3-1-4.5-1.5-6.8c-0.1-0.4,0-1.2-0.7-1s-0.2,0.7-0.1,1.1s0.2,0.9,0.3,1.4l2.7,12.6c0.1,0.3,0.1,0.7,0.5,0.7
			S28.5,78.2,28.5,77.8z M103,62.1c-0.5-2.4-1-4.8-1.6-7.2s-1-4.8-1.5-7.2c-0.1-0.3-0.1-0.8-0.6-0.8s-0.4,0.6-0.3,1
			c0.1,0.7,0.3,1.3,0.4,2c0.9,4.1,1.8,8.2,2.6,12.2c0.1,0.3,0,0.8,0.6,0.7C102.9,62.7,103,62.5,103,62.1z M125.6,57.2
			c0-0.1,0-0.2,0-0.2l-3.1-14.3c-0.1-0.3-0.1-0.7-0.6-0.6s-0.4,0.5-0.3,0.8c0.5,2.5,1.1,5,1.6,7.5c0.5,2.3,1,4.5,1.4,6.8
			c0.1,0.3,0.1,0.7,0.5,0.7S125.6,57.5,125.6,57.2L125.6,57.2z M133.7,55.6c0-0.1,0-0.2,0-0.2l-3-14.1c-0.1-0.4-0.1-1-0.6-0.8
			s-0.3,0.7-0.2,1.1c0.4,2.1,0.9,4.2,1.3,6.3l1.6,7.7c0.1,0.3,0.1,0.7,0.5,0.7S133.7,55.9,133.7,55.6L133.7,55.6z M103.8,46.5
			l0.1,0.3l3,14.1c0.1,0.3,0.1,0.8,0.6,0.7s0.3-0.6,0.3-1c-0.5-2.6-1.1-5.1-1.6-7.7c-0.4-2.1-0.9-4.3-1.4-6.4
			c-0.1-0.3-0.2-0.8-0.7-0.7C103.7,46,103.8,46.2,103.8,46.5L103.8,46.5z M91.7,64.5c0-0.1,0-0.2-0.1-0.3c-1-4.7-2-9.4-3-14.2
			c-0.1-0.3-0.1-0.9-0.7-0.7s-0.2,0.6-0.1,0.9c0.7,3.2,1.3,6.5,2,9.7c0.3,1.5,0.7,3,1,4.5c0.1,0.3,0.1,0.7,0.6,0.6
			S91.7,64.8,91.7,64.5L91.7,64.5z M36.7,76.1c0-0.1,0-0.2-0.1-0.3l-3-14c-0.1-0.4,0-0.9-0.6-0.8s-0.3,0.6-0.2,1
			c0.4,2.2,0.9,4.3,1.3,6.4l1.7,7.7c0.1,0.3,0.1,0.7,0.5,0.7S36.7,76.5,36.7,76.1L36.7,76.1z M99.4,68.3c0,1,0.4,2,1,2.8
			c0.7,0.9,1.9,1.1,2.9,0.5c0.4-0.3,0.7-0.7,0.8-1.2c0.3-1.1,0.2-2.3-0.3-3.3c-0.3-1.2-1.5-1.9-2.7-1.6c0,0-0.1,0-0.1,0
			C100,65.7,99.4,66.6,99.4,68.3L99.4,68.3z M113.9,62.8l-1,0.2c-0.7,0.1-0.8,0.5-0.7,1.1c0.3,1.5,0.6,3,1,4.4
			c0.1,0.4,0.1,0.8,0.7,0.8c1.5,0.2,2.9-0.9,3.1-2.5c0,0,0,0,0,0C117.1,64.6,115.9,62.9,113.9,62.8L113.9,62.8z M129.9,65.7
			c-1.6,0.2-1.6-0.9-1.8-1.9s-0.3-1.6-0.5-2.5c-0.1-0.3-0.1-0.6,0.1-0.8s0.9-0.1,0.6-0.6s-0.7-0.1-1.1,0l-1.5,0.3
			c-0.2,0-0.4,0.2-0.3,0.4c0,0.1,0.2,0.2,0.3,0.2c0,0,0,0,0.1,0c1-0.3,0.9,0.4,1.1,1c0.2,0.9,0.4,1.9,0.6,2.8
			c0.1,0.6,0.3,1.2-0.6,1.3c-0.2,0-0.4,0.2-0.3,0.4s0.3,0.2,0.5,0.1C128.1,66.4,129,66.1,129.9,65.7L129.9,65.7z M49.5,82.3
			c-0.2,0-0.7-0.4-0.8,0.1s0.4,0.6,0.8,0.6c0.9,0.2,1.8-0.5,2-1.4c0-0.3,0-0.6-0.1-0.8c-0.2-1-0.4-1.9-0.6-2.9
			c-0.1-0.4-0.5-1.1,0.4-1.2c0.1,0,0.2-0.2,0.2-0.3c0,0,0,0,0-0.1c0-0.2-0.2-0.3-0.4-0.2c0,0,0,0,0,0L49,76.6
			c-0.2,0-0.3,0.2-0.3,0.3c0,0.2,0.1,0.3,0.3,0.3c1.2-0.4,1,0.6,1.2,1.2c0.2,0.8,0.4,1.6,0.5,2.4C50.9,81.9,50.5,82.4,49.5,82.3z"/>
		<path class="st1" d="M157.9,50.9c-0.6,0.2-1.2,0.3-1.8,0.5s-0.6-0.1-0.6-0.6c-0.6-2.9-1.3-5.8-1.9-8.7c-0.4-2-0.8-4-1.2-6
			c-0.1-0.5-0.1-0.6,0.4-0.7s0.9-0.2,1.4-0.3s0.6,0,0.7,0.5c0.9,4.2,1.7,8.5,2.6,12.7c0,0.5,0.2,1,0.5,1.5L157.9,50.9z"/>
		<path class="st2" d="M66.2,64h0.6h1c1.1,0.5,1.3,1.5,1.5,2.7c0.3-0.4,0.8-0.8,1.3-1l2.5-0.5l0.7-0.2h1h0.6c1,0,1.8,0.8,2.8,0.5
			c0.2,0.3,0.6,0.3,0.9,0.4c0.3,0.2,0.6,0.4,0.9,0.4c0.9,1.3,1.1,3,0.6,4.5c-0.7,1.8-0.2,3.9-1.5,5.7c-0.4,0.6-0.7,1.2-1.5,1.4
			s-1.4,0.5-2.1,0.8c1,1.6,1.7,3.3,2.2,5.1c0.5,2.1,1.8,3.7,2.6,5.6c0.2,0.7,0.4,1.4,0.6,2.2c0.3,1.6,0.9,3.1,1.6,4.4
			c0.4,0.6,0.5,1.3,0.3,2c-0.2,0.5-0.2,1.1-1,0.7c-0.2-0.1-0.6-0.1-0.7,0.3c0,0.1-0.1,0.2-0.2,0.3c-0.6,0.4-3.6-0.1-4.2-0.5
			s-0.6-1.2-0.3-1.9c-0.8-0.3-1.2-0.7-0.6-1.5c0.2-0.3-0.3-1.9-0.9-3.1c-0.2,1.3-0.6,0.8-1.1,0.3c-0.2-0.3-0.4-0.6-0.5-1
			c-0.6-2.1-1.4-4.2-2.3-6.2c-0.8-1.9-1.5-3.8-2.4-5.7c-0.5-1-1.5-0.4-2.2-0.5s-0.4,0.6-0.4,1c-0.2,2.5-1,4.8-0.8,7.3
			c0,0.2,0,0.5,0,0.7c0.1,2-0.1,2.2-2,2.7c-0.3,0.1-0.7,0.2-1.1,0.2c-2.8,0.3-3.9-0.7-3.8-3.6c0-0.9,0-1.7,0.1-2.6
			c0-0.2,0-0.3,0.1-0.5c0.4-1,1.3-1.8,1-3.1c-0.1-0.3,0.4-0.5,0.7-0.6s0.4-0.3,0.3-0.5c-0.8-1.4,0-2.7,0.2-4.1
			c0.3-2.8,1.4-5.4,2-8.1c0.3-0.4,0.5-0.9,0.4-1.5c0.4-0.5,0.6-1.2,0.5-1.9C64.4,64,65.3,63.7,66.2,64z M68,75.7
			c2.2-0.1,3.7-1,5.4-1.3c0.3-0.1,0.5-0.3,0.5-0.6c0.2-1.3,0.4-2.5,0.7-3.7c0.1-0.4,0-0.6-0.5-0.5c-1.3,0.1-2.6,0.3-3.8,0.8
			c-0.6,0.3-1.7,0.3-1.8,1c-0.2,1.1-0.6,2.1-1.1,3.1C67,75.6,67.4,75.7,68,75.7z"/>
		<path class="st2" d="M77.9,51.3c-2.7-3.2-4.9-6.7-7.5-10.1c-0.5,2.5-0.7,5.1-1,7.6c-0.1,1.5-0.3,3-0.7,4.5L68.3,54
			c-0.7,0.4-1.6,0.5-2.4,0.2H65c-1.3-1-1.3-2.5-1.4-3.9c-0.2-3.4-0.1-6.8,0.4-10.1c0.4-2.7,0.5-5.5,1.1-8.2c0.1-0.2,0.1-0.5,0.1-0.7
			c-0.4-1.5-0.4-1.6,1.2-1.5s2.9-0.4,4.1,0.7c0.6,0.5,1.1,1.1,1.5,1.8c1.7,3.2,3.4,6.3,5.1,9.5c0.1,0.1,0.1,0.3,0.2,0.4
			c0.3,0.3,0.5,1,1,0.9s0-0.8,0.1-1.1c0.4-1.7,0-3.7,0.8-5.1c1.3-2.2,1.3-4.7,1.8-7c0.3-1.7,0.6-3.5,2.6-4.3c1.6-0.6,5.2,1.5,5,3.2
			c-0.3,1.5-1,2.9-2,4c-0.4,0.5-0.8,0.8-0.5,1.5c0.2,0.4,0,0.8-0.3,1c0,0,0,0,0,0c-0.2,0.1-0.4,0.3-0.3,0.5c1,1.3-0.4,1.8-0.9,2.5
			s-0.7,1,0.1,1.8s0.3,1.8,0.2,2.7c-0.4,1.5-0.6,3-0.6,4.5c0,0.9,0.1,1.8,0.3,2.7c0,0.3-0.1,0.7-0.1,1c-0.3,0.1-0.5,0.2-0.5,0.5
			l-2.3,1c-0.3-0.2-0.6-0.3-0.9-0.2C79.6,51.9,78.8,51.7,77.9,51.3z"/>
		<path class="st2" d="M96.6,79.2c0.3-1.9,1-3.6,1.2-5.5c0-0.3,0.1-0.5,0.4-0.5c2,0,4.1-0.7,5.8,1.2c0.6,0.6,0.8,1.4,0.5,2.2
			c-0.8,2.4-1.3,5-1.9,7.5c-0.3,1.5-0.5,3-0.4,4.5c0,0.8-0.3,1.2-1,1.3s-1.6,0.3-2.4,0.5c-1.6,0.2-3.1-0.8-3.3-2.4
			c-2,1.1-4.3,1.4-6.5,0.7c-2.3-0.6-3.8-2.9-3.5-5.3c0.3-2.8,0.8-5.6,1.7-8.4c0.2-0.4,0.5-0.8,0.9-1c0.6,0.1,1.2,0.2,1.8,0.5
			c0.6,0.5,1.2,1.2,1.7,1.8c0.4,0.5,0.5,1.1,0.3,1.7c-0.6,1.7-0.6,3.4-1,5.1c-0.4,1.4,0.2,1.9,1.6,1.5s2.8-0.9,3.4-2.5
			c0.2-0.5,0.9-0.5,1.3-0.8C96,81.4,95.8,80.2,96.6,79.2c0.2,0.2,0,0.6,0.4,0.6s0.5-0.3,0.6-0.6c0.2,0,0.3,0,0.4-0.2
			c0-0.1-0.1-0.2-0.1-0.2c0,0-0.1,0-0.1,0c-0.1,0.1-0.2,0.2-0.1,0.4c0,0,0,0,0,0L96.6,79.2z"/>
		<path class="st2" d="M91.8,53l-0.7-0.8L90.9,52l-0.1-0.7v-0.6c0-3.2,0.5-6.4,0.8-9.6c0.3-0.8,0.4-1.6,0.3-2.5
			c-0.3-1.5,0.4-1.9,2-1.5c1.2,0.2,2.3,0.5,3.4,0.9c1.6,0.8,2,1.8,1.2,3.4c-0.9,1.7-0.9,3.6-0.9,5.5c0.1,1.2-0.1,2.3-0.1,3.5
			s0.3,2.3-0.6,3.2l-0.7,0.1l-1-0.5c-0.3-0.2-0.6-0.4-1,0C93.4,53.3,92.6,53.2,91.8,53z"/>
		<path class="st3" d="M24.9,79.7c-0.7-1.6-1.3-3.3-1.6-5c-1-3.4-1.2-7-2-10.5c-0.1-0.5,0.2-0.8,0.3-1.2c0.2,0.2,0.5,0.3,0.8,0.2
			c1.3-0.5,1.4,0.4,1.6,1.3c0.9,4.3,1.8,8.6,2.8,13c0.2,1,0.3,1.8-1,1.8C25.4,79.2,25,79.2,24.9,79.7z"/>
		<path class="st3" d="M37.4,60c0.7-0.3,0.9-0.1,1,0.4c1,4.8,2,9.6,3.1,14.4c0.2,1-0.5,1.1-1.1,1.2s-1.2,0.1-1.4-0.8
			c-1-4.7-2-9.3-3-14C35.6,59.7,36.9,60.2,37.4,60z"/>
		<path class="st3" d="M124.8,42.1c0-1.1,1-0.8,1.6-1s0.8,0,0.9,0.6c1,4.8,2,9.7,3.1,14.5c0.1,0.5,0,0.7-0.5,0.8
			c-1.7,0.5-1.8,0.5-2.2-1.2c-0.9-4.3-1.8-8.6-2.7-12.9C125,42.6,124.9,42.3,124.8,42.1z"/>
		<path class="st3" d="M44,58.6c1-0.1,0.9,0.8,1,1.3c0.8,3.5,1.5,7,2.2,10.5c0.2,1,0.4,2,0.6,2.9s-0.4,1.2-1.1,1.4s-1.2,0.2-1.4-0.8
			c-0.9-4.6-2-9.3-2.9-13.9C42.2,58.9,42.6,58.6,44,58.6z"/>
		<path class="st3" d="M51.1,73.7c-0.9,0.2-0.8-0.6-0.9-1.1c-0.8-3.9-1.7-7.9-2.5-11.8c-0.1-0.6-0.2-1.2-0.4-1.7
			c-0.3-0.8,0-1.2,0.8-1.5c1.1-0.3,1.5,0,1.7,1.1c0.9,4.4,1.8,8.7,2.8,13.1C53,73.4,52.8,73.6,51.1,73.7z"/>
		<path class="st3" d="M57.7,71.8c-0.2,0.9-1.1,0.6-1.7,0.8s-0.8-0.2-0.9-0.8c-0.8-3.7-1.6-7.4-2.4-11.1c-0.2-1-0.4-2-0.7-3
			c-0.2-0.6,0-1,0.7-1.1s1.5-0.8,1.8,0.4c1,4.8,2.1,9.7,3.1,14.5C57.7,71.6,57.7,71.7,57.7,71.8z"/>
		<path class="st3" d="M35.1,76.4c0,1.1-1,0.7-1.6,1c-0.8,0.3-0.9-0.4-1-0.9C31.7,73,31,69.5,30.3,66c-0.3-1.2-0.5-2.4-0.8-3.6
			c-0.2-0.8,0.4-0.9,0.9-0.9s1.3-0.8,1.5,0.3c1,4.8,2.1,9.6,3.1,14.3C35.1,76.2,35.1,76.3,35.1,76.4z"/>
		<path class="st3" d="M115.2,43.5c1-0.1,0.9,0.8,1,1.3c0.8,3.5,1.5,7,2.2,10.5c0.2,1,0.4,2,0.6,2.9s-0.1,1.2-0.9,1.3
			c-0.6,0.1-1.3,0.6-1.6-0.7c-0.9-4.6-2-9.2-2.9-13.8C113.4,43.9,113.8,43.5,115.2,43.5z"/>
		<path class="st3" d="M134.6,39.4c1.1-0.1,0.9,0.8,1,1.3c0.8,3.5,1.5,7,2.2,10.5c0.2,1,0.4,2,0.7,3c0.3,1.1-0.6,1.1-1.1,1.3
			s-1.2,0.3-1.4-0.7c-0.9-4.7-2-9.5-3-14.2C132.8,39.7,133.3,39.4,134.6,39.4z"/>
		<path class="st3" d="M123.9,57.5c0.1,1.1-0.8,0.8-1.4,1s-0.9,0-1.1-0.7c-1-4.7-2-9.4-3-14.2c-0.2-0.8,0.3-1.1,0.9-1.2
			c0.5,0,1.2-0.8,1.5,0.4c1,4.8,2,9.5,3,14.3C123.9,57.3,123.9,57.4,123.9,57.5z"/>
		<path class="st3" d="M108.7,44.9c1.1-0.1,0.9,0.8,1,1.3c0.8,3.5,1.5,6.9,2.2,10.4c0.2,1.1,0.4,2.1,0.7,3.2s-0.6,1-1.2,1.2
			s-1.1,0.3-1.3-0.6c-0.9-4.7-2-9.4-3-14.2C106.9,45.2,107.4,44.8,108.7,44.9z"/>
		<path class="st2" d="M91.6,32.8c0.1-1.4,0.6-2.7,1.3-3.8c0.1-0.1,0.3-0.3,0.3-0.3c1,0.5,2.3-0.1,3.3,0.7c0.3,0.2,0.6,0.3,1,0.4
			c1,0.4,1.8,1.3,1.9,2.4c0.2,1-0.6,1.5-1.3,1.9c-1,0.6-2,1.1-3.2,1.3c-1.5,0.3-3-0.7-3.3-2.2C91.6,33.1,91.6,32.9,91.6,32.8z"/>
		<path class="st3" d="M78.3,51.5c0.8,0.3,1.7,0.6,2.6,0.8c1,4.5,1.8,8.9,2.8,13.4c0.2,0.8,0.1,1.2-0.8,1.3s-1.5,0.6-1.7-0.8
			c-0.9-4.7-2-9.3-2.9-13.9C78.3,52,78.3,51.8,78.3,51.5z"/>
		<path class="st3" d="M81.6,52.2l2.3-1c0.9,4.4,1.9,8.8,2.8,13.3c0.1,0.5,0.4,1-0.1,1.3c-0.6,0.3-1.2,0.5-1.8,0.4
			c-0.4,0-0.4-0.4-0.4-0.6C83.5,61.1,82.6,56.7,81.6,52.2z"/>
		<path class="st3" d="M78.2,65.5c-1,0.3-1.8-0.5-2.8-0.5c-0.2-1.9-0.5-3.8-1-5.7c-0.4-2-0.8-3.9-1.2-5.8c-0.3-1.1,0.4-1.2,1.1-1.4
			s1.2-0.2,1.4,0.8C76.4,57.1,77.5,61.2,78.2,65.5z"/>
		<path class="st3" d="M96.8,53.7c1-0.9,0.6-2.1,0.7-3.2c0-1.1,0.2-2.3,0.1-3.5c0.6,0.2,0.6,0.7,0.7,1.2c1,4.6,2,9.3,3.1,13.9
			c0.2,1-0.3,1.1-0.9,1.2c-0.7,0.1-1.4,0.5-1.6-0.5c-0.5-2.3-1-4.7-1.5-7C97.1,55.1,97,54.4,96.8,53.7z"/>
		<path class="st3" d="M68.1,54.2l0.8-1.1c1.9-0.5,1.7-0.7,2.1,1.2c0.8,3.6,1.6,7.2,2.3,10.8c0,0-0.1,0.1-0.2,0.1l-2.6,0.5
			c0-0.2-0.1-0.2-0.2-0.4C69.6,61.5,68.9,58.1,68.1,54.2z"/>
		<path class="st3" d="M91.8,53c0.8,0.2,1.6,0.3,2.4,0.2c0.9,2.8,1.3,5.7,1.9,8.6c0,0.2,0.1,0.5,0.1,0.7c0.4,1.7,0.2,1.8-1.5,2
			c-0.5,0-0.7-0.1-0.7-0.5C93.3,60.4,92.3,56.7,91.8,53z"/>
		<path class="st3" d="M66.2,64c-0.9-0.3-1.9,0.1-2.4,0.8c-0.7-3.1-1.3-6.2-2-9.2c-0.3-1.1,0.5-1,1-1.1s1.2-0.6,1.5,0.6
			C64.8,58.1,65.6,61,66.2,64z"/>
		<path class="st4" d="M90.8,50.8c0,0.2,0,0.4,0,0.6c-0.3,0.3-0.2,0.5,0.1,0.7l0.2,0.2c-0.4,0.3-0.2,0.6-0.1,1
			c0.7,3.3,1.4,6.7,2.1,10c0,0.1,0.1,0.2,0.1,0.3c0,0.4,0.3,0.9-0.2,1s-0.6-0.4-0.6-0.8c-0.6-2.7-1.1-5.3-1.7-8
			c-0.4-2.1-0.9-4.1-1.3-6.2c-0.1-0.4-0.2-0.9,0.3-0.9s0.4,0.5,0.5,0.8S90.1,50.7,90.8,50.8z"/>
		<path class="st4" d="M132,55.8c0,0.4,0.1,0.8-0.4,0.8s-0.5-0.5-0.5-0.8c-0.8-3.9-1.6-7.7-2.4-11.6c-0.2-0.8-0.4-1.7-0.6-2.6
			c-0.1-0.4-0.4-0.8,0.2-1s0.5,0.5,0.6,0.8c0.9,4.4,1.9,8.8,2.8,13.2C131.9,55,132,55.4,132,55.8z"/>
		<path class="st4" d="M120.7,58.4c0,0.2,0.1,0.5-0.4,0.6s-0.5-0.3-0.6-0.6c-1-4.8-2.1-9.7-3.1-14.5c-0.1-0.3-0.2-0.7,0.3-0.8
			s0.5,0.2,0.6,0.6C118.7,48.5,119.7,53.3,120.7,58.4z"/>
		<path class="st4" d="M106.2,61.4c0,0.3,0,0.6-0.4,0.6s-0.5-0.5-0.6-0.8c-0.5-2.2-0.9-4.4-1.4-6.5l-1.6-7.7
			c-0.1-0.3-0.3-0.8,0.3-0.9s0.5,0.3,0.6,0.7c1,4.8,2,9.5,3,14.3C106.1,61.2,106.2,61.3,106.2,61.4z"/>
		<path class="st4" d="M140.2,54.3c0,0.3,0,0.6-0.4,0.7s-0.5-0.3-0.5-0.6c-0.8-3.8-1.6-7.6-2.4-11.3c-0.2-0.9-0.4-1.7-0.5-2.6
			c-0.1-0.5-0.6-1.3,0.1-1.5s0.6,0.9,0.7,1.3c0.8,3.6,1.5,7.3,2.3,10.9C139.7,52.2,140,53.2,140.2,54.3z"/>
		<path class="st4" d="M60.8,70.8c0,0.5,0,0.8-0.3,0.9c-0.5,0-0.5-0.4-0.6-0.8c-0.8-3.8-1.6-7.6-2.4-11.4c-0.2-0.8-0.4-1.6-0.5-2.5
			c-0.1-0.4-0.5-1,0.1-1.2s0.6,0.6,0.7,1c0.7,3.2,1.4,6.5,2,9.7C60.2,67.9,60.6,69.4,60.8,70.8z"/>
		<path class="st4" d="M28.1,61.9c0.6,0.2,0.6,0.6,0.7,1l2,9.2c0.3,1.6,0.7,3.2,1,4.8c0.1,0.4,0.2,0.8-0.4,0.9s-0.4-0.5-0.5-0.8
			c-1-4.6-2-9.3-3-13.9C27.8,62.8,27.6,62.3,28.1,61.9z"/>
		<path class="st4" d="M135.3,55.4c0,0.2-0.1,0.4-0.3,0.4c0,0-0.1,0-0.1,0c-0.4,0.1-0.5-0.3-0.6-0.6c-0.4-1.7-0.8-3.4-1.1-5.1
			l-1.9-8.9c0-0.2-0.1-0.4-0.1-0.6c0-0.3-0.1-0.7,0.4-0.8s0.4,0.3,0.5,0.6c0.2,1.1,0.5,2.2,0.7,3.3c0.8,3.7,1.5,7.3,2.3,11
			C135.2,55,135.2,55.2,135.3,55.4z"/>
		<path class="st4" d="M30.2,77.6c0,0.3,0,0.6-0.3,0.6c-0.5,0.1-0.6-0.3-0.6-0.7c-0.4-2.1-0.9-4.2-1.3-6.3c-0.6-2.6-1.1-5.2-1.7-7.8
			c-0.1-0.4-0.3-0.9,0.2-1s0.5,0.4,0.6,0.8l3,14C30.1,77.3,30.2,77.4,30.2,77.6z"/>
		<path class="st4" d="M112.3,44.1c0.5,0,0.4,0.5,0.5,0.8c0.5,2.3,1,4.5,1.4,6.8c0.5,2.4,1,4.8,1.5,7.1c0.1,0.4,0.6,1-0.2,1.2
			s-0.6-0.7-0.7-1.1c-0.9-4-1.7-7.9-2.5-11.9c-0.2-0.7-0.3-1.4-0.4-2.1C111.8,44.5,111.9,44.2,112.3,44.1z"/>
		<path class="st4" d="M105.8,45.4c0.5,0.2,0.5,0.5,0.6,0.9c0.9,4.2,1.8,8.5,2.7,12.7c0.1,0.5,0.2,1,0.3,1.5
			c0.1,0.3,0.3,0.7-0.2,0.8s-0.6-0.2-0.7-0.6l-1-4.8c-0.7-3.1-1.3-6.2-2-9.3C105.4,46.2,105.2,45.7,105.8,45.4z"/>
		<path class="st4" d="M54.5,72.5c0,0.4,0,0.8-0.4,0.8s-0.5-0.4-0.5-0.7c-0.9-4.2-1.8-8.5-2.7-12.8c-0.1-0.6-0.3-1.2-0.4-1.8
			c-0.1-0.3-0.1-0.6,0.2-0.7s0.6,0.2,0.6,0.5c0.3,1.6,0.7,3.3,1,4.9c0.7,3.1,1.3,6.2,2,9.2C54.5,72.3,54.5,72.4,54.5,72.5z"/>
		<path class="st4" d="M59.2,71.4c0.1,0.3,0.1,0.6-0.2,0.6c-0.2,0.1-0.5-0.1-0.5-0.3c0,0,0,0,0-0.1c-0.1-0.5-0.3-1.1-0.4-1.6
			l-2.7-12.6c0-0.2,0-0.4-0.1-0.6c-0.1-0.4-0.1-0.6,0.3-0.7s0.4,0.3,0.5,0.5l0.8,3.5c0.8,3.5,1.5,7,2.3,10.5
			C59.1,70.9,59.1,71.2,59.2,71.4z"/>
		<path class="st4" d="M41.2,59.2c0.4,0.2,0.4,0.7,0.5,1c0.7,3.4,1.5,6.9,2.2,10.3c0.3,1.2,0.5,2.5,0.8,3.7c0.1,0.3,0.3,0.8-0.2,0.8
			s-0.5-0.4-0.6-0.7c-0.9-4.1-1.7-8.1-2.6-12.2c-0.2-0.8-0.3-1.6-0.5-2.3C40.7,59.5,40.8,59.2,41.2,59.2z"/>
		<path class="st4" d="M39.5,59.5c0.5,0.1,0.5,0.4,0.6,0.7c1,4.8,2,9.6,3,14.4c0.1,0.4,0.2,0.8-0.3,0.9c-0.5,0.1-0.5-0.4-0.6-0.8
			c-1-4.7-2-9.4-3-14.1C39.2,60.2,38.9,59.7,39.5,59.5z"/>
		<path class="st4" d="M28.5,77.8c0,0.3,0,0.7-0.4,0.7s-0.4-0.4-0.5-0.7L25,65.2c-0.1-0.5-0.2-0.9-0.3-1.4s-0.5-1,0.1-1.1
			s0.6,0.6,0.7,1c0.5,2.2,1,4.5,1.5,6.8C27.5,72.9,28,75.4,28.5,77.8z"/>
		<path class="st4" d="M103,62.1c0.1,0.3,0,0.6-0.3,0.7c-0.6,0.1-0.5-0.4-0.6-0.7c-0.9-4.1-1.8-8.2-2.6-12.2c-0.1-0.7-0.3-1.3-0.4-2
			c-0.1-0.3-0.3-0.9,0.3-1s0.5,0.5,0.6,0.8c0.5,2.4,1,4.8,1.5,7.2S102.4,59.7,103,62.1z"/>
		<path class="st4" d="M125.6,57.2c0,0.3,0,0.6-0.4,0.6s-0.5-0.4-0.5-0.7c-0.5-2.3-0.9-4.5-1.4-6.8c-0.5-2.5-1.1-5-1.6-7.5
			c-0.1-0.3-0.3-0.8,0.3-0.8s0.5,0.3,0.6,0.6l3.1,14.4C125.5,57.1,125.5,57.1,125.6,57.2z"/>
		<path class="st4" d="M133.7,55.6c0,0.3,0,0.6-0.4,0.6s-0.4-0.3-0.5-0.7l-1.6-7.7c-0.4-2.1-0.9-4.2-1.3-6.3c-0.1-0.4-0.4-1,0.2-1.1
			s0.6,0.4,0.6,0.8l3,14.1C133.6,55.4,133.6,55.5,133.7,55.6z"/>
		<path class="st4" d="M103.8,46.5c0-0.2,0-0.5,0.3-0.6c0.5-0.1,0.6,0.3,0.7,0.7c0.5,2.1,0.9,4.3,1.4,6.4c0.5,2.6,1.1,5.1,1.6,7.7
			c0.1,0.4,0.4,0.8-0.3,1s-0.5-0.4-0.6-0.7l-3-14.1L103.8,46.5z"/>
		<path class="st4" d="M91.6,64.5c0.1,0.3,0,0.5-0.3,0.5s-0.5-0.3-0.6-0.6c-0.3-1.5-0.7-3-1-4.5c-0.7-3.2-1.4-6.5-2-9.7
			c0-0.3-0.4-0.8,0.1-0.9s0.6,0.4,0.7,0.7c1,4.7,2,9.4,3,14.2C91.6,64.3,91.6,64.4,91.6,64.5z"/>
		<path class="st4" d="M84.3,50.8c0-0.3,0-0.7,0.1-1c0.6,0,0.8,0.2,0.9,0.8c1,4.7,2,9.4,3,14.1c0.1,0.3,0.3,0.8-0.2,0.9
			s-0.6-0.4-0.6-0.8c-1-4.5-1.9-8.9-2.9-13.4C84.5,51.3,84.4,51.1,84.3,50.8z"/>
		<path class="st4" d="M36.7,76.2c0,0.3,0,0.6-0.4,0.6s-0.5-0.4-0.5-0.7l-1.7-7.7c-0.5-2.1-0.9-4.3-1.3-6.4c-0.1-0.4-0.3-0.9,0.2-1
			s0.5,0.5,0.6,0.8l3,14C36.7,76,36.7,76.1,36.7,76.2z"/>
		<path class="st4" d="M38.2,83c-0.1-1.1-0.3-2.2-0.5-3.3c0-0.2-0.3-0.6,0.2-0.7s0.5,0.2,0.6,0.5c0.3,1.6,0.7,3.2,1,4.8
			c0,0.2,0.3,0.6,0,0.8s-0.6-0.2-0.8-0.4c-1-1.1-2-2.3-3.3-3.7c0.3,1.6,0.6,2.9,0.9,4.2c0,0.2,0.2,0.5-0.1,0.6s-0.5-0.2-0.6-0.4
			c-0.4-1.7-0.7-3.3-1.1-5c0-0.2-0.1-0.5,0.2-0.6s0.5,0.1,0.7,0.3C36.4,81,37.3,82,38.2,83l0.1,0.1L38.2,83z"/>
		<path class="st4" d="M80,66.2c-0.3,0-0.7-0.2-0.9-0.4c-0.7-3.7-1.5-7.4-2.2-11.1c-0.2-0.8-0.3-1.5-0.5-2.3
			c-0.1-0.3-0.2-0.7,0.3-0.8s0.5,0.2,0.6,0.6c0.6,2.6,1.2,5.1,1.6,7.7C79.3,62,79.7,64.1,80,66.2z"/>
		<path class="st4" d="M141.3,56.8c0.3,0,0.6,0.1,0.7,0.5c0.3,1.7,0.7,3.4,1,5.2c0,0.2,0.3,0.4,0,0.6c-0.2,0.1-0.5,0-0.6-0.2
			c-0.2-0.4-0.6-0.7-1-1c-0.6-1-1.5-1.9-2.4-2.6c0.3,1.4,0.5,2.7,0.8,3.9c0,0.2,0.2,0.5-0.1,0.6s-0.4-0.2-0.5-0.4
			c-0.4-1.7-0.7-3.4-1.1-5.1c-0.1-0.2-0.1-0.5,0.2-0.6s0.4,0.1,0.6,0.2c0.8,0.9,1.6,1.8,2.4,2.6c0.2,0.3,0.2,0.8,0.9,0.9l-0.8-3
			C141.4,57.8,140.7,57.3,141.3,56.8z"/>
		<path class="st4" d="M99.4,68.4c0-1.8,0.5-2.6,1.6-2.8c1.2-0.3,2.4,0.4,2.7,1.6c0,0,0,0,0,0c0.5,1,0.6,2.2,0.3,3.3
			c-0.3,1.1-1.4,1.8-2.5,1.5c-0.5-0.1-0.9-0.4-1.2-0.8C99.8,70.3,99.4,69.4,99.4,68.4z M103.3,69.3c0-0.9-0.3-1.8-0.8-2.6
			c-0.3-0.4-0.9-0.6-1.4-0.5c-0.5,0-0.7,0.4-0.8,0.9c-0.3,1.3-0.1,2.7,0.8,3.7c0.4,0.5,1.2,0.6,1.7,0.2c0.2-0.2,0.4-0.4,0.4-0.7
			C103.3,70,103.3,69.6,103.3,69.3z"/>
		<path class="st4" d="M113.9,62.9c2,0,3.2,1.8,3,4c-0.2,1.5-1.5,2.7-3.1,2.5c0,0,0,0,0,0c-0.5-0.1-0.6-0.5-0.7-0.8
			c-0.3-1.5-0.6-3-1-4.4c-0.1-0.6,0-1,0.7-1.1L113.9,62.9z M116.2,66.3c0-1-0.4-1.9-1.2-2.6c-0.5-0.4-1.2-0.4-1.8-0.1
			c-0.6,0.3-0.1,0.8-0.1,1.2c0.1,0.9,0.4,1.9,0.6,2.8c0.3,1.1,0.9,1.3,1.8,0.6C116.1,67.7,116.3,67,116.2,66.3z"/>
		<path class="st4" d="M63.3,66.7c0.1,0.5-0.1,1.1-0.4,1.5c-0.9-4.1-1.8-8.2-2.7-12.3c-0.1-0.3-0.2-0.8,0.3-0.9
			c0.4-0.1,0.4,0.3,0.5,0.6C61.7,59.3,62.7,63,63.3,66.7z"/>
		<path class="st4" d="M74.9,64.9h-1c-0.4-3.1-1.3-6.2-1.9-9.2c-0.2-0.8-0.3-1.5-0.5-2.3c-0.1-0.3-0.2-0.7,0.2-0.8s0.6,0.3,0.6,0.7
			L74.9,64.9z"/>
		<path class="st4" d="M95.1,53.3l1,0.5c0.6,2.8,1.2,5.6,1.8,8.4c0.1,0.2,0.1,0.4,0.1,0.6c0,0.4,0.2,0.9-0.3,1s-0.5-0.5-0.5-0.8
			C96.5,59.7,95.8,56.5,95.1,53.3z"/>
		<path class="st4" d="M65,54.2h0.9c0.5,3.3,1.4,6.5,2,9.8h-1c-0.3-2.6-1-5.1-1.5-7.6C65.2,55.7,65.1,55,65,54.2z"/>
		<path class="st4" d="M89.7,75c-0.6-0.3-1.2-0.4-1.8-0.5c-1.2-1.2-1.7-3-1.1-4.6c0.5-1.2,1.8-1.7,3-1.2c0.1,0.1,0.3,0.1,0.4,0.2
			c0.2,0.2,0.4,0.3,0.2,0.6s-0.4,0.2-0.6,0c-1.4-0.7-2.4-0.2-2.4,1.3c-0.1,1,0.2,1.9,0.8,2.7c0.4,0.7,1.3,0.9,2,0.5
			c0.1-0.1,0.2-0.1,0.3-0.2c0.2-0.2,0.4-0.7,0.7-0.4s0,0.7-0.3,0.9C90.4,74.5,90.1,74.8,89.7,75z"/>
		<path class="st4" d="M129.8,65.7c-0.8,0.5-1.8,0.7-2.7,0.9c-0.2,0-0.4,0.1-0.5-0.1s0.1-0.4,0.3-0.4c0.9-0.1,0.7-0.7,0.6-1.3
			c-0.2-0.9-0.4-1.9-0.6-2.8c-0.1-0.6-0.1-1.3-1.1-1c-0.1,0.1-0.3,0-0.3-0.2c0,0,0,0,0-0.1c-0.1-0.2,0.1-0.4,0.3-0.4l1.5-0.3
			c0.4-0.1,0.9-0.4,1.1,0s-0.4,0.4-0.6,0.6s-0.2,0.5-0.1,0.8c0.2,0.8,0.3,1.6,0.5,2.5C128.2,64.8,128.2,65.8,129.8,65.7z"/>
		<path class="st4" d="M49.5,82.3c1,0.1,1.4-0.4,1.2-1.4c-0.2-0.8-0.3-1.6-0.5-2.4c-0.2-0.6,0.1-1.6-1.2-1.2c-0.2,0-0.3-0.1-0.3-0.3
			c0-0.2,0.1-0.3,0.3-0.3l2.1-0.5c0.2,0,0.3,0.1,0.4,0.2c0,0,0,0,0,0c0.1,0.1,0,0.3-0.1,0.4c0,0,0,0-0.1,0c-0.9,0.1-0.5,0.7-0.4,1.2
			c0.2,1,0.4,1.9,0.6,2.9c0.3,0.9-0.2,1.8-1.1,2.1C50.1,83,49.8,83,49.5,83c-0.4,0-0.9-0.1-0.8-0.6S49.2,82.3,49.5,82.3z"/>
		<path class="st5" d="M141.4,58.3l0.8,3"/>
		<path class="st1" d="M9.1,82c0.2,1.2-1.1,0.6-1.7,1s-0.7-0.1-0.8-0.7c-0.7-3.2-1.4-6.5-2.1-9.7c-0.3-1.6-0.6-3.2-1-4.8
			C3.5,67.3,3.6,67.2,4,67c0.4-0.1,0.9-0.2,1.4-0.3c0.3,0,0.6,0,0.6,0.4C7.1,72.1,8.1,77,9.1,82z"/>
		<path class="st1" d="M13.8,81.6c-0.6,0.2-0.5-0.3-0.6-0.7c-0.7-3.2-1.4-6.5-2.1-9.7c-0.3-1.6-0.6-3.2-1-4.8
			c-0.1-0.5-0.1-0.7,0.4-0.7c0.1,0,0.2-0.1,0.3-0.1c1-0.3,1.6-0.3,1.9,1c0.9,4.6,1.9,9.2,2.9,13.8C15.8,81.2,15.1,81.6,13.8,81.6z"
			/>
		<path class="st1" d="M20.4,79.8c0.3,0.5-0.2,0.5-0.3,0.6c-1.5,0.6-2,0.4-2.3-1.2c-0.9-4.4-1.9-8.8-2.8-13.3
			c-0.1-0.6-0.1-1.3,0.6-1.2s1.5-1.2,1.8,0.5c0.9,4.8,2,9.4,3,14.2C20.4,79.5,20.4,79.6,20.4,79.8z"/>
		<path class="st1" d="M0.9,67.7c0.1,0.3,0.3,0.5,0.4,0.8c1,4.8,2.1,9.7,3.1,14.5c0.1,0.2,0.2,0.6-0.2,0.7s-0.6-0.2-0.7-0.6
			c-0.5-2.3-1-4.7-1.5-7c-0.5-2.5-1-5-1.6-7.4C0.2,68.2,0.2,67.9,0.9,67.7z"/>
		<path class="st1" d="M17.3,80.4c0.1,0.4-0.2,0.5-0.5,0.5c-0.4,0.1-0.4-0.3-0.5-0.6c-0.4-1.9-0.8-3.7-1.2-5.6
			c-0.6-3-1.3-5.9-1.9-8.9c-0.1-0.3-0.2-0.7,0.2-0.8s0.6,0.3,0.7,0.6c1,4.9,2,9.8,3.1,14.6C17.3,80.3,17.3,80.4,17.3,80.4z"/>
		<path class="st1" d="M10.8,81.9c0,0.2,0,0.4-0.3,0.4s-0.6-0.2-0.6-0.6c-0.5-2.3-1-4.6-1.4-6.9c-0.5-2.6-1.1-5.1-1.6-7.7
			c-0.1-0.3-0.3-0.6,0.2-0.7s0.6,0.2,0.6,0.5c1.1,4.9,2.1,9.8,3.1,14.6C10.8,81.7,10.8,81.8,10.8,81.9z"/>
		<path class="st1" d="M22.1,79.3c0,0.3,0.1,0.6-0.3,0.6c-0.5,0.1-0.6-0.4-0.6-0.7c-0.3-1.2-0.5-2.4-0.8-3.5
			c-0.7-3.7-1.5-7.3-2.3-11c0-0.3-0.3-0.5,0.2-0.6c0.3,0,0.6-0.1,0.7,0.4c0.9,4.6,1.9,9.1,2.9,13.7C21.9,78.6,22,79,22.1,79.3z"/>
		<path class="st1" d="M2,68c0-0.2-0.1-0.5,0.2-0.5s0.4,0.1,0.5,0.5c0.5,2,1,4,1.4,6c0.6,2.9,1.2,5.8,1.8,8.7
			C6,83,6.2,83.2,5.7,83.3s-0.5-0.1-0.6-0.4C4,78,3,73.2,2,68.4C2,68.3,2,68.1,2,68z"/>
		<path class="st1" d="M9.6,86.5c0.3,1.6,0.6,2.9,0.8,4.2c0,0.2,0.5,0.5,0,0.7s-0.4-0.3-0.5-0.6c-0.4-1.7-0.8-3.3-1.2-5
			c0-0.2-0.1-0.5,0.2-0.6s0.5,0.1,0.7,0.3c0.8,0.9,1.7,1.8,2.5,2.7l0.7,0.8c-0.3-1.6-0.5-2.8-0.8-4.1c0-0.2-0.4-0.4,0.1-0.5
			c0.3,0,0.5,0,0.6,0.3c0.2,2,1,3.8,1,5.8l-0.3,0.2L9.6,86.5z"/>
		<path class="st1" d="M22.6,88.3c2.2-0.5,1.4-1.6,1.1-2.7c-0.1-0.6-0.2-1.2-0.4-1.8s0-1.6-1.2-0.9c0,0-0.2-0.1-0.3-0.2
			c0-0.1,0-0.2,0-0.3c1-0.1,2-0.6,3.1-0.4c-1.4,0.4-1.2,1.3-0.9,2.3c0.2,0.7,0.4,1.4,0.5,2.2c0.1,0.7,0.1,1.4,1.2,1
			c0.3-0.1,0.4,0.1,0.5,0.2s0.1,0.4-0.1,0.4C25.1,88,24.1,88.8,22.6,88.3z"/>
		<path class="st1" d="M154.7,51.2c0,0.1,0,0.2,0,0.2c-0.5,0.6-1.3,0.4-2,0.6c-0.5,0.2-0.6-0.4-0.7-0.8c-1-4.8-2-9.5-3-14.3
			c-0.1-0.7,0.1-0.9,0.6-1c1.6-0.4,1.6-0.4,2,1.4c1,4.6,2,9.1,3,13.7C154.7,51.2,154.7,51.2,154.7,51.2z"/>
		<path class="st1" d="M141.2,37.9c0.4,0,0.6,0,0.7,0.5c1,4.8,2,9.5,3.1,14.3c0.2,0.4,0,1-0.5,1.1c-0.1,0-0.2,0.1-0.2,0.1
			c-1.6,0.4-1.6,0.4-1.9-1.1c-0.9-4.3-1.8-8.6-2.7-13C139.3,38.2,139.4,37.9,141.2,37.9z"/>
		<path class="st1" d="M143,37.5c0.3,0.1,0.4,0.5,0.5,0.8c1,4.8,2,9.6,3.1,14.4c0.1,0.4,0,0.7-0.3,0.8s-0.5-0.3-0.6-0.6
			c-0.9-4.2-1.8-8.5-2.7-12.7c-0.1-0.7-0.4-1.3-0.4-1.9C142.5,38,142.4,37.5,143,37.5z"/>
		<path class="st1" d="M149.8,52.1c0.1,0.4,0.1,0.6-0.3,0.7s-0.4-0.3-0.4-0.5c-0.7-3.3-1.4-6.6-2.1-10c-0.3-1.6-0.6-3.2-1-4.8
			c-0.1-0.4-0.1-0.6,0.3-0.7s0.4,0.3,0.5,0.6c1,4.8,2.1,9.5,3.1,14.3C149.8,51.8,149.8,51.9,149.8,52.1z"/>
		<path class="st1" d="M144.7,37.2c0.4,0.1,0.4,0.6,0.5,0.8c0.8,3.8,1.6,7.7,2.4,11.5c0.2,1,0.4,1.9,0.6,2.9
			c0.1,0.3,0.3,0.5-0.2,0.6c-0.3,0-0.6,0.1-0.6-0.4c-1-4.8-2.1-9.7-3.1-14.5C144.2,37.8,144,37.3,144.7,37.2z"/>
		<path class="st1" d="M153.8,57.7c0.2,0,0.4,0,0.6-0.1c1.1-0.5,1.5,0,1.6,1c0,0.5,0.4,1.2-0.3,1.7c-0.7,0.6-1.6,0.7-2.5,0.5
			c-1.6-0.7-2.9-4.4-1-5.9c0.7-0.6,1.8-0.7,2.6-0.2c0.3,0.2,0.4,0.3,0.2,0.5s-0.3,0.2-0.5,0.1c-0.6-0.5-1.5-0.4-2,0.2
			c-0.6,0.6-0.7,1.5-0.4,2.2c0.1,0.8,0.4,1.6,1,2.2c0.5,0.4,1.3,0.5,1.9,0.1c0.7-0.3,0.4-0.9,0.4-1.4s-0.3-0.7-0.7-0.4
			S154,58.1,153.8,57.7z"/>
		<path class="st0" d="M68,75.7c-0.6,0.1-1-0.1-0.5-1.2c0.5-1,0.9-2.1,1.1-3.1c0.1-0.7,1.2-0.8,1.8-1c1.2-0.5,2.5-0.8,3.8-0.8
			c0.5,0,0.6,0.2,0.5,0.5c-0.3,1.2-0.5,2.4-0.7,3.7c0,0.3-0.2,0.5-0.5,0.6C71.7,74.7,70.2,75.6,68,75.7z"/>
		<path class="st0" d="M67.8,64.1c-0.6-3.3-1.5-6.5-2-9.8c0.8,0.3,1.7,0.2,2.4-0.2c0.8,3.7,1.5,7.4,2.3,11.1c0,0.2,0,0.4,0.1,0.6
			c-0.5,0.2-0.9,0.6-1.2,1C69.2,65.6,69,64.5,67.8,64.1z"/>
		<path class="st0" d="M96.6,79.2h1l0,0c0,0.3-0.2,0.6-0.6,0.6S96.7,79.4,96.6,79.2L96.6,79.2z"/>
		<path class="st0" d="M97.5,79.2c-0.1-0.1,0-0.3,0.1-0.4c0,0,0,0,0,0c0.1,0,0.2,0,0.2,0.1c0,0,0,0.1,0,0.1
			C97.9,79.2,97.7,79.2,97.5,79.2L97.5,79.2z"/>
		<path class="st0" d="M90.9,52.1c-0.3-0.2-0.3-0.4-0.1-0.7C90.8,51.6,90.8,51.9,90.9,52.1z"/>
		<path class="st0" d="M38.4,83l0.1,0.1L38.4,83L38.4,83z"/>
		<path class="st0" d="M103.3,69.3c0,0.4,0,0.7-0.1,1.1c-0.2,0.7-0.8,1.1-1.5,0.9c-0.3-0.1-0.5-0.2-0.7-0.4
			c-0.8-1.1-1.1-2.4-0.8-3.7c0.1-0.4,0.3-0.8,0.8-0.9c0.5-0.1,1.1,0,1.4,0.5C103.1,67.4,103.4,68.4,103.3,69.3z"/>
		<path class="st0" d="M116.2,66.3c0.1,0.7-0.1,1.4-0.7,1.9c-0.9,0.7-1.5,0.5-1.8-0.6c-0.2-0.9-0.5-1.8-0.6-2.8
			c-0.1-0.4-0.5-0.9,0.1-1.2c0.6-0.3,1.3-0.3,1.8,0.1C115.8,64.4,116.2,65.3,116.2,66.3z"/>
	</g>
</g>
</svg>
