<svg id="Layer_1" data-name="Layer 1" xmlns="http://www.w3.org/2000/svg" viewBox="0 0 105.7 106.39"><defs><style>.cls-1{fill:#00c5bf;}</style></defs><path class="cls-1" d="M305.06,367.94c5.66,1.53,11.39,2.93,16.55,5.8a55.09,55.09,0,0,1,24.74,28.1c.83,2.05.54,4.69.32,7-.68,7.14-1.59,14.17-5.45,20.58-5.79,9.59-14.5,14.56-24.9,17.14-6.72,1.67-13.59,1.75-20.54,1.44,1.65-2.57,4.35-1.13,6.47-1.79,11.64-3.63,18.82-11.92,22.74-22.9,4.49-12.62,3.73-25.11-4.28-36.41-6.62-9.33-16-14.41-26.94-16.67-1.76-.36-3.47-1.1-5.4-.87-1.51.18-.42-.9-.42-1.44Z" transform="translate(-244.06 -367.94)"/><path class="cls-1" d="M244.06,412.89c1.79-5.21,2.66-10.72,5.18-15.72a53.5,53.5,0,0,1,27.3-25.67c2.42-1,4.89-.7,7.26-.49,8.83.79,17.62,1.95,25.21,7.21,9.15,6.34,13.34,15.4,14.74,26.27a61.77,61.77,0,0,1-.1,16.91c-.1.66.36,1.55-.94,1.94a77.67,77.67,0,0,0-.94-8.19c-2.68-12.31-11-19.88-22.12-23.82-15.84-5.61-30.31-2.7-42.12,9.93-6.49,6.95-9.67,15.66-11.93,24.74-.25,1,0,2.05-1.54,1.88Z" transform="translate(-244.06 -367.94)"/><path class="cls-1" d="M291.67,474.33c-4.37-1.58-9-1.88-13.45-3.57-14-5.32-23.62-14.95-29.86-28.39-2.22-4.78-1-9.75-.42-14.46,1.19-9.47,4.44-18.25,11.64-25,5.52-5.22,12.14-7.68,19.56-8.8a65.5,65.5,0,0,1,17.91.05,4.93,4.93,0,0,1,3.45,1.57,29.54,29.54,0,0,0-14.94,2.65c-10.92,5.29-17.31,14.33-19.81,25.78-4.57,20.94,6.24,37.68,25.55,45.7,3.13,1.3,6.21,2.73,9.63,3.19.43.06.77.86,1.15,1.32Z" transform="translate(-244.06 -367.94)"/><path class="cls-1" d="M271.1,416.36c-.21,5.78.31,11.55,3.08,16.61a37.62,37.62,0,0,0,24.08,18.75c11.05,3,21.68,1.47,31.24-5.13,9.32-6.42,14.6-15.75,18-26.35.42-1.35.48-2.86,1.94-4.47a49.67,49.67,0,0,1-1.53,19.46A55.28,55.28,0,0,1,335,457.85a48.21,48.21,0,0,1-17,11.81c-5,2.07-10.21.89-15.22.07a43.66,43.66,0,0,1-19.64-8c-7.2-5.36-11-12.63-12.89-21-1.73-7.54-1.16-15.22,0-22.83A5.35,5.35,0,0,1,271.1,416.36Z" transform="translate(-244.06 -367.94)"/><path class="cls-1" d="M297.23,436.12c-9.47-1.28-14.05-5.64-15.08-15.28-.79-7.39,7.45-15.81,15-15.28,9.36.65,15.19,5.79,15.13,15.76C312.28,430,305.89,435.45,297.23,436.12Z" transform="translate(-244.06 -367.94)"/></svg>